# xmcd
#
# Track frame offsets:
#	150
#	12319
#	24824
#	39028
#	51696
#	63365
#	73151
#	85464
#	96162
#	112480
#	121944
#	132521
#	148707
#	165559
#	178529
#	190168
#
# Disc length: 2689 seconds
#
# Revision: 1
# Processed by: cddbd v1.5.2PL0 Copyright (c) Steve Scherf et al.
# Submitted via: audiograbber 1.83.01
#
DISCID=e50a7f10
DTITLE=Merle Haggard - Merle Haggard Super Hit Collection 32 Songs  disk 2
DYEAR=2012
DGENRE=Country
TTITLE0=The Bottle Let Me Down
TTITLE1=It's Been A Great Afternoon
TTITLE2=Branded Man
TTITLE3=The Emptiest Arms In The World
TTITLE4=Carolyn
TTITLE5=Mama Tried
TTITLE6=Roots Of My Raising
TTITLE7=Old Man From The Mountain
TTITLE8=Mama's Hunger Eyes
TTITLE9=Legond Of Bonnie And Clyde
TTITLE10=Some Day We'll Look Back
TTITLE11=Ramblin' Fever
TTITLE12=Today I Started Loving You Again
TTITLE13=Swinging Doors
TTITLE14=From Graceland To The Promised Land
TTITLE15=Turnin' Off A Memory
EXTD=
EXTT0=
EXTT1=
EXTT2=
EXTT3=
EXTT4=
EXTT5=
EXTT6=
EXTT7=
EXTT8=
EXTT9=
EXTT10=
EXTT11=
EXTT12=
EXTT13=
EXTT14=
EXTT15=
PLAYORDER=
